<svg width="1900" height="300" viewBox="0 0 1900 300" fill="none" xmlns="http://www.w3.org/2000/svg">
<path d="M459.375 215.625V84.375M590.625 225L496.875 150L590.625 75V225Z" stroke="white" stroke-width="22.5" stroke-linecap="round" stroke-linejoin="round"/>
<path d="M1440.62 84.375V215.625M1309.38 75L1403.12 150L1309.38 225V75Z" stroke="white" stroke-width="22.5" stroke-linecap="round" stroke-linejoin="round"/>
<path d="M925 187.5V112.5M975 187.5V112.5M1075 150C1075 219.036 1019.04 275 950 275C880.964 275 825 219.036 825 150C825 80.9644 880.964 25 950 25C1019.04 25 1075 80.9644 1075 150Z" stroke="white" stroke-width="25" stroke-linecap="round" stroke-linejoin="round"/>
<g clip-path="url(#clip0_19_180)">
<path d="M1758.5 210.8H1748.12C1730.94 210.8 1717 197.279 1717 180.6V120.2C1717 103.521 1730.94 90 1748.12 90H1851.88C1869.07 90 1883 103.521 1883 120.2V180.6C1883 197.279 1869.07 210.8 1851.88 210.8H1800M1800 210.8L1831.12 180.6M1800 210.8L1831.12 241" stroke="white" stroke-width="20" stroke-linecap="round" stroke-linejoin="round"/>
</g>
<path d="M155.892 76L183.67 103.778M183.67 103.778L155.892 131.557M183.67 103.778H146.632C138.027 103.778 133.725 103.778 130.147 104.49C115.455 107.413 103.969 118.898 101.047 133.59C100.335 137.168 100.335 141.471 100.335 150.076C100.335 158.68 100.335 162.983 99.623 166.561C96.7007 181.253 85.2153 192.738 70.5229 195.661C66.9452 196.373 62.6427 196.373 54.0378 196.373H17M155.892 224.151L183.67 196.373M183.67 196.373L155.892 168.594M183.67 196.373H146.632C138.027 196.373 133.725 196.373 130.147 195.661C129.462 195.525 128.784 195.37 128.113 195.197M17 103.778H54.0378C62.6427 103.778 66.9452 103.778 70.5229 104.49C71.208 104.626 71.8861 104.781 72.5567 104.954" stroke="white" stroke-width="20" stroke-linecap="round" stroke-linejoin="round"/>
<defs>
<clipPath id="clip0_19_180">
<rect width="200" height="200" fill="white" transform="translate(1700 50)"/>
</clipPath>
</defs>
</svg>
